<svg width="104" height="104" viewBox="0 0 104 104" fill="none" xmlns="http://www.w3.org/2000/svg">
<path d="M52 56.3333C61.5729 56.3333 69.3333 48.5729 69.3333 39C69.3333 29.427 61.5729 21.6666 52 21.6666C42.4271 21.6666 34.6667 29.427 34.6667 39C34.6667 48.5729 42.4271 56.3333 52 56.3333Z" stroke="white" stroke-width="4.33333" stroke-linecap="round" stroke-linejoin="round"/>
<path d="M36.7859 48.184L23.8333 71.5L35.5956 71.4431C35.9725 71.4412 36.3433 71.5376 36.6715 71.7229C36.9997 71.9081 37.274 72.1758 37.4671 72.4994L43.3333 82.3333L55.2947 56.0192" stroke="white" stroke-width="4.33333" stroke-linecap="round" stroke-linejoin="round"/>
<path d="M66.969 47.6666L80.1667 71.5L68.4044 71.4431C68.0275 71.4412 67.6567 71.5376 67.3285 71.7228C67.0003 71.9081 66.7261 72.1757 66.5329 72.4993L60.6667 82.3333L52 63.2666" stroke="white" stroke-width="4.33333" stroke-linecap="round" stroke-linejoin="round"/>
<path d="M52 47.6667C56.7865 47.6667 60.6667 43.7865 60.6667 39C60.6667 34.2136 56.7865 30.3334 52 30.3334C47.2135 30.3334 43.3333 34.2136 43.3333 39C43.3333 43.7865 47.2135 47.6667 52 47.6667Z" stroke="white" stroke-width="4.33333" stroke-linecap="round" stroke-linejoin="round"/>
</svg>
