<svg width="24" height="24" viewBox="0 0 24 24" fill="none" xmlns="http://www.w3.org/2000/svg">
<path d="M18.9999 10.1615C19.0004 10.3109 18.9675 10.4585 18.9034 10.5935C18.8394 10.7285 18.746 10.8475 18.63 10.9416L12.6305 15.7725C12.4516 15.9196 12.2272 16 11.9956 16C11.764 16 11.5396 15.9196 11.3607 15.7725L5.36122 10.7716C5.15702 10.6018 5.02861 10.3578 5.00423 10.0934C4.97985 9.8289 5.06151 9.56557 5.23123 9.36132C5.40095 9.15706 5.64484 9.02862 5.90924 9.00423C6.17364 8.97985 6.4369 9.06152 6.6411 9.23129L12.0006 13.7021L17.3601 9.38132C17.5069 9.25902 17.6856 9.18132 17.8751 9.15744C18.0646 9.13356 18.257 9.16448 18.4296 9.24655C18.6021 9.32862 18.7475 9.4584 18.8485 9.62054C18.9496 9.78268 19.0022 9.97039 18.9999 10.1615Z" fill="#444444"/>
</svg>
