<svg width="76" height="76" viewBox="0 0 76 76" fill="none" xmlns="http://www.w3.org/2000/svg">
<path d="M38 16.625C26.1992 16.625 16.625 26.1992 16.625 38C16.625 49.8008 26.1992 59.375 38 59.375C49.8008 59.375 59.375 49.8008 59.375 38C59.375 26.1992 49.8008 16.625 38 16.625Z" stroke="#E94F37" stroke-width="3.5625" stroke-miterlimit="10"/>
<path d="M38 16.625C26.1992 16.625 16.625 26.1992 16.625 38C16.625 49.8008 26.1992 59.375 38 59.375C49.8008 59.375 59.375 49.8008 59.375 38C59.375 26.1992 49.8008 16.625 38 16.625Z" stroke="black" stroke-opacity="0.2" stroke-width="3.5625" stroke-miterlimit="10"/>
<path d="M38 16.625C26.1992 16.625 16.625 26.1992 16.625 38C16.625 49.8008 26.1992 59.375 38 59.375C49.8008 59.375 59.375 49.8008 59.375 38C59.375 26.1992 49.8008 16.625 38 16.625Z" stroke="black" stroke-opacity="0.2" stroke-width="3.5625" stroke-miterlimit="10"/>
<path d="M38 23.75V39.7812H48.6875" stroke="#E94F37" stroke-width="3.5625" stroke-linecap="round" stroke-linejoin="round"/>
<path d="M38 23.75V39.7812H48.6875" stroke="black" stroke-opacity="0.2" stroke-width="3.5625" stroke-linecap="round" stroke-linejoin="round"/>
<path d="M38 23.75V39.7812H48.6875" stroke="black" stroke-opacity="0.2" stroke-width="3.5625" stroke-linecap="round" stroke-linejoin="round"/>
</svg>
