<svg width="76" height="76" viewBox="0 0 76 76" fill="none" xmlns="http://www.w3.org/2000/svg">
<path d="M38.0002 59.1111C49.6596 59.1111 59.1113 49.6593 59.1113 38C59.1113 26.3406 49.6596 16.8889 38.0002 16.8889C26.3409 16.8889 16.8891 26.3406 16.8891 38C16.8891 49.6593 26.3409 59.1111 38.0002 59.1111Z" stroke="#E94F37" stroke-width="4.22222" stroke-linecap="round" stroke-linejoin="round"/>
<path d="M38.0002 59.1111C49.6596 59.1111 59.1113 49.6593 59.1113 38C59.1113 26.3406 49.6596 16.8889 38.0002 16.8889C26.3409 16.8889 16.8891 26.3406 16.8891 38C16.8891 49.6593 26.3409 59.1111 38.0002 59.1111Z" stroke="black" stroke-opacity="0.2" stroke-width="4.22222" stroke-linecap="round" stroke-linejoin="round"/>
<path d="M38.0002 59.1111C49.6596 59.1111 59.1113 49.6593 59.1113 38C59.1113 26.3406 49.6596 16.8889 38.0002 16.8889C26.3409 16.8889 16.8891 26.3406 16.8891 38C16.8891 49.6593 26.3409 59.1111 38.0002 59.1111Z" stroke="black" stroke-opacity="0.2" stroke-width="4.22222" stroke-linecap="round" stroke-linejoin="round"/>
<path d="M46.9508 29.0489L42.4753 42.4756L29.0486 46.9511L33.5242 33.5244L46.9508 29.0489Z" stroke="#E94F37" stroke-width="4.22222" stroke-linecap="round" stroke-linejoin="round"/>
<path d="M46.9508 29.0489L42.4753 42.4756L29.0486 46.9511L33.5242 33.5244L46.9508 29.0489Z" stroke="black" stroke-opacity="0.2" stroke-width="4.22222" stroke-linecap="round" stroke-linejoin="round"/>
<path d="M46.9508 29.0489L42.4753 42.4756L29.0486 46.9511L33.5242 33.5244L46.9508 29.0489Z" stroke="black" stroke-opacity="0.2" stroke-width="4.22222" stroke-linecap="round" stroke-linejoin="round"/>
</svg>
