<svg width="29" height="29" viewBox="0 0 29 29" fill="none" xmlns="http://www.w3.org/2000/svg">
<path d="M20.1389 8.05566H8.86111C7.97132 8.05566 7.25 8.77698 7.25 9.66678V20.9446C7.25 21.8343 7.97132 22.5557 8.86111 22.5557H20.1389C21.0287 22.5557 21.75 21.8343 21.75 20.9446V9.66678C21.75 8.77698 21.0287 8.05566 20.1389 8.05566Z" stroke="#E94F37" stroke-width="1.61111" stroke-linecap="round" stroke-linejoin="round"/>
<path d="M20.1389 8.05566H8.86111C7.97132 8.05566 7.25 8.77698 7.25 9.66678V20.9446C7.25 21.8343 7.97132 22.5557 8.86111 22.5557H20.1389C21.0287 22.5557 21.75 21.8343 21.75 20.9446V9.66678C21.75 8.77698 21.0287 8.05566 20.1389 8.05566Z" stroke="black" stroke-opacity="0.2" stroke-width="1.61111" stroke-linecap="round" stroke-linejoin="round"/>
<path d="M20.1389 8.05566H8.86111C7.97132 8.05566 7.25 8.77698 7.25 9.66678V20.9446C7.25 21.8343 7.97132 22.5557 8.86111 22.5557H20.1389C21.0287 22.5557 21.75 21.8343 21.75 20.9446V9.66678C21.75 8.77698 21.0287 8.05566 20.1389 8.05566Z" stroke="black" stroke-opacity="0.2" stroke-width="1.61111" stroke-linecap="round" stroke-linejoin="round"/>
<path d="M17.7219 6.44434V9.66656" stroke="#E94F37" stroke-width="1.61111" stroke-linecap="round" stroke-linejoin="round"/>
<path d="M17.7219 6.44434V9.66656" stroke="black" stroke-opacity="0.2" stroke-width="1.61111" stroke-linecap="round" stroke-linejoin="round"/>
<path d="M17.7219 6.44434V9.66656" stroke="black" stroke-opacity="0.2" stroke-width="1.61111" stroke-linecap="round" stroke-linejoin="round"/>
<path d="M11.2781 6.44434V9.66656" stroke="#E94F37" stroke-width="1.61111" stroke-linecap="round" stroke-linejoin="round"/>
<path d="M11.2781 6.44434V9.66656" stroke="black" stroke-opacity="0.2" stroke-width="1.61111" stroke-linecap="round" stroke-linejoin="round"/>
<path d="M11.2781 6.44434V9.66656" stroke="black" stroke-opacity="0.2" stroke-width="1.61111" stroke-linecap="round" stroke-linejoin="round"/>
<path d="M7.25 12.889H21.75" stroke="#E94F37" stroke-width="1.61111" stroke-linecap="round" stroke-linejoin="round"/>
<path d="M7.25 12.889H21.75" stroke="black" stroke-opacity="0.2" stroke-width="1.61111" stroke-linecap="round" stroke-linejoin="round"/>
<path d="M7.25 12.889H21.75" stroke="black" stroke-opacity="0.2" stroke-width="1.61111" stroke-linecap="round" stroke-linejoin="round"/>
</svg>
