<svg width="104" height="104" viewBox="0 0 104 104" fill="none" xmlns="http://www.w3.org/2000/svg">
<g clip-path="url(#clip0_120_516)">
<path d="M74.4471 50.8195H74.4601V50.7627C74.4601 37.696 63.8294 27.0653 50.7627 27.0653C37.6961 27.0653 27.0653 37.696 27.0653 50.7627V52.5812C27.0653 53.5545 26.277 54.3429 25.3037 54.3429H23.4852C22.5118 54.3429 21.7235 53.5545 21.7235 52.5812V50.7636C22.2436 35.2011 34.5644 21.7235 50.7627 21.7235C66.961 21.7235 79.2819 35.2012 79.802 50.7637V69.5979C79.802 75.2334 75.2334 79.8019 69.5979 79.8019H48.9442C45.9626 79.8019 43.5455 77.3849 43.5455 74.4032C43.5455 71.4216 45.9626 69.0046 48.9442 69.0046H52.5812C55.5629 69.0046 57.9799 71.4216 57.9799 74.4032V74.4601H58.0367H69.5979C72.2831 74.4601 74.4601 72.2831 74.4601 69.5979H74.4033C74.4601 69.5978 74.4601 69.5978 74.4601 69.5976V69.597V69.5945L74.4601 69.5844L74.4601 69.5446L74.4601 69.3893L74.4599 68.7998L74.4593 66.6937C74.4587 64.9495 74.4578 62.621 74.4567 60.2838C74.4545 55.8551 74.4514 51.3927 74.4471 50.8195ZM39.8517 41.727C41.8286 41.727 43.4319 43.3303 43.4319 45.3072V58.0367C43.4319 60.0136 41.8286 61.6169 39.8517 61.6169H38.0332C34.0468 61.6169 30.816 58.3861 30.816 54.3997V48.9442C30.816 44.9578 34.0468 41.727 38.0332 41.727H39.8517ZM70.7094 54.3997C70.7094 58.3861 67.4786 61.6169 63.4923 61.6169H61.6737C59.6968 61.6169 58.0936 60.0136 58.0936 58.0367V45.3072C58.0936 43.3303 59.6968 41.727 61.6737 41.727H63.4923C67.4786 41.727 70.7094 44.9578 70.7094 48.9442V54.3997Z" fill="white" stroke="white" stroke-width="0.113657"/>
</g>
<defs>
<clipPath id="clip0_120_516">
<rect width="58.1921" height="58.1921" fill="white" transform="translate(21.6667 21.6666)"/>
</clipPath>
</defs>
</svg>
