<svg width="21" height="21" viewBox="0 0 21 21" fill="none" xmlns="http://www.w3.org/2000/svg">
<g clip-path="url(#clip0_5286_2902)">
<path d="M17.8983 4.61291C17.4737 4.1881 16.9696 3.85112 16.4147 3.6212C15.8598 3.39129 15.2651 3.27295 14.6644 3.27295C14.0638 3.27295 13.4691 3.39129 12.9142 3.6212C12.3593 3.85112 11.8552 4.1881 11.4305 4.61291L10.5493 5.49412L9.66812 4.61291C8.81044 3.75523 7.64718 3.27339 6.43424 3.27339C5.2213 3.27339 4.05804 3.75523 3.20036 4.61291C2.34268 5.47059 1.86084 6.63385 1.86084 7.84679C1.86084 9.05973 2.34268 10.223 3.20036 11.0807L4.08157 11.9619L10.5493 18.4297L17.0171 11.9619L17.8983 11.0807C18.3231 10.6561 18.6601 10.1519 18.89 9.59704C19.1199 9.04216 19.2383 8.44742 19.2383 7.84679C19.2383 7.24617 19.1199 6.65142 18.89 6.09654C18.6601 5.54166 18.3231 5.03752 17.8983 4.61291V4.61291Z" stroke="#444444" stroke-width="1.66266" stroke-linecap="round" stroke-linejoin="round"/>
</g>
<defs>
<clipPath id="clip0_5286_2902">
<rect width="19.952" height="19.952" fill="white" transform="translate(0.572754 0.780518)"/>
</clipPath>
</defs>
</svg>
