<svg width="21" height="21" viewBox="0 0 21 21" fill="none" xmlns="http://www.w3.org/2000/svg">
<path d="M16.6944 3.27441H5.05573C4.13747 3.27441 3.39307 4.01881 3.39307 4.93708V16.5757C3.39307 17.494 4.13747 18.2384 5.05573 18.2384H16.6944C17.6126 18.2384 18.357 17.494 18.357 16.5757V4.93708C18.357 4.01881 17.6126 3.27441 16.6944 3.27441Z" stroke="#444444" stroke-width="1.66266" stroke-linecap="round" stroke-linejoin="round"/>
<path d="M7.96526 9.09385C8.65396 9.09385 9.21226 8.53555 9.21226 7.84685C9.21226 7.15815 8.65396 6.59985 7.96526 6.59985C7.27656 6.59985 6.71826 7.15815 6.71826 7.84685C6.71826 8.53555 7.27656 9.09385 7.96526 9.09385Z" stroke="#444444" stroke-width="1.66266" stroke-linecap="round" stroke-linejoin="round"/>
<path d="M18.3575 13.2507L14.2008 9.09399L5.05615 18.2386" stroke="#444444" stroke-width="1.66266" stroke-linecap="round" stroke-linejoin="round"/>
</svg>
