<svg width="47" height="47" viewBox="0 0 47 47" fill="none" xmlns="http://www.w3.org/2000/svg">
<path d="M30.0279 10.4443H16.9724C13.3672 10.4443 10.4446 13.3669 10.4446 16.9721V30.0277C10.4446 33.6329 13.3672 36.5554 16.9724 36.5554H30.0279C33.6331 36.5554 36.5557 33.6329 36.5557 30.0277V16.9721C36.5557 13.3669 33.6331 10.4443 30.0279 10.4443Z" stroke="#F7F7F7" stroke-width="2.61111" stroke-linecap="round" stroke-linejoin="round"/>
<path d="M28.7221 22.6779C28.8833 23.7644 28.6977 24.8741 28.1918 25.8491C27.6859 26.8241 26.8854 27.6147 25.9043 28.1086C24.9231 28.6024 23.8112 28.7743 22.7267 28.5998C21.6423 28.4253 20.6404 27.9133 19.8637 27.1366C19.087 26.3599 18.575 25.358 18.4005 24.2736C18.226 23.1891 18.3979 22.0772 18.8917 21.096C19.3856 20.1149 20.1762 19.3144 21.1512 18.8085C22.1262 18.3026 23.2359 18.1171 24.3224 18.2782C25.4307 18.4425 26.4568 18.959 27.2491 19.7512C28.0413 20.5435 28.5578 21.5696 28.7221 22.6779Z" stroke="#F7F7F7" stroke-width="2.61111" stroke-linecap="round" stroke-linejoin="round"/>
<path d="M30.6804 16.3193H30.6918" stroke="#F7F7F7" stroke-width="2.61111" stroke-linecap="round" stroke-linejoin="round"/>
</svg>
