<svg width="27" height="27" viewBox="0 0 27 27" fill="none" xmlns="http://www.w3.org/2000/svg">
<path d="M20.2498 12.4044C20.2498 17.7732 13.347 22.375 13.347 22.375C13.347 22.375 6.44434 17.7732 6.44434 12.4044C6.44434 10.5737 7.17158 8.81797 8.46609 7.52347C9.7606 6.22896 11.5163 5.50171 13.347 5.50171C15.1778 5.50171 16.9335 6.22896 18.228 7.52347C19.5225 8.81797 20.2498 10.5737 20.2498 12.4044Z" stroke="#014B6E" stroke-width="1.53394" stroke-linecap="round" stroke-linejoin="round"/>
<path d="M13.3473 14.7053C14.618 14.7053 15.6482 13.6752 15.6482 12.4044C15.6482 11.1337 14.618 10.1035 13.3473 10.1035C12.0765 10.1035 11.0464 11.1337 11.0464 12.4044C11.0464 13.6752 12.0765 14.7053 13.3473 14.7053Z" stroke="#014B6E" stroke-width="1.53394" stroke-linecap="round" stroke-linejoin="round"/>
</svg>
