<svg width="24" height="24" viewBox="0 0 24 24" fill="none" xmlns="http://www.w3.org/2000/svg">
<path d="M18 11.0262C18 15.7984 11.8643 19.8889 11.8643 19.8889C11.8643 19.8889 5.72852 15.7984 5.72852 11.0262C5.72852 9.39885 6.37496 7.8382 7.52563 6.68753C8.67631 5.53685 10.237 4.89041 11.8643 4.89041C13.4916 4.89041 15.0522 5.53685 16.2029 6.68753C17.3536 7.8382 18 9.39885 18 11.0262Z" stroke="#E94F37" stroke-width="1.3635" stroke-linecap="round" stroke-linejoin="round"/>
<path d="M18 11.0262C18 15.7984 11.8643 19.8889 11.8643 19.8889C11.8643 19.8889 5.72852 15.7984 5.72852 11.0262C5.72852 9.39885 6.37496 7.8382 7.52563 6.68753C8.67631 5.53685 10.237 4.89041 11.8643 4.89041C13.4916 4.89041 15.0522 5.53685 16.2029 6.68753C17.3536 7.8382 18 9.39885 18 11.0262Z" stroke="black" stroke-opacity="0.2" stroke-width="1.3635" stroke-linecap="round" stroke-linejoin="round"/>
<path d="M18 11.0262C18 15.7984 11.8643 19.8889 11.8643 19.8889C11.8643 19.8889 5.72852 15.7984 5.72852 11.0262C5.72852 9.39885 6.37496 7.8382 7.52563 6.68753C8.67631 5.53685 10.237 4.89041 11.8643 4.89041C13.4916 4.89041 15.0522 5.53685 16.2029 6.68753C17.3536 7.8382 18 9.39885 18 11.0262Z" stroke="black" stroke-opacity="0.2" stroke-width="1.3635" stroke-linecap="round" stroke-linejoin="round"/>
<path d="M11.8643 13.0714C12.9938 13.0714 13.9095 12.1557 13.9095 11.0261C13.9095 9.89658 12.9938 8.9809 11.8643 8.9809C10.7347 8.9809 9.81902 9.89658 9.81902 11.0261C9.81902 12.1557 10.7347 13.0714 11.8643 13.0714Z" stroke="#E94F37" stroke-width="1.3635" stroke-linecap="round" stroke-linejoin="round"/>
<path d="M11.8643 13.0714C12.9938 13.0714 13.9095 12.1557 13.9095 11.0261C13.9095 9.89658 12.9938 8.9809 11.8643 8.9809C10.7347 8.9809 9.81902 9.89658 9.81902 11.0261C9.81902 12.1557 10.7347 13.0714 11.8643 13.0714Z" stroke="black" stroke-opacity="0.2" stroke-width="1.3635" stroke-linecap="round" stroke-linejoin="round"/>
<path d="M11.8643 13.0714C12.9938 13.0714 13.9095 12.1557 13.9095 11.0261C13.9095 9.89658 12.9938 8.9809 11.8643 8.9809C10.7347 8.9809 9.81902 9.89658 9.81902 11.0261C9.81902 12.1557 10.7347 13.0714 11.8643 13.0714Z" stroke="black" stroke-opacity="0.2" stroke-width="1.3635" stroke-linecap="round" stroke-linejoin="round"/>
</svg>
