<svg width="22" height="22" viewBox="0 0 22 22" fill="none" xmlns="http://www.w3.org/2000/svg">
<g clip-path="url(#clip0_13_244)">
<path d="M17.4167 7.722V6.41667C17.4167 4.71486 16.7406 3.08276 15.5373 1.8794C14.3339 0.67604 12.7018 0 11 0C9.2982 0 7.6661 0.67604 6.46274 1.8794C5.25938 3.08276 4.58334 4.71486 4.58334 6.41667V7.722C3.76692 8.07831 3.07203 8.66481 2.58363 9.40978C2.09524 10.1547 1.83452 11.0259 1.83334 11.9167V17.4167C1.8348 18.6318 2.31815 19.7967 3.17738 20.656C4.0366 21.5152 5.20155 21.9985 6.41668 22H15.5833C16.7985 21.9985 17.9634 21.5152 18.8226 20.656C19.6819 19.7967 20.1652 18.6318 20.1667 17.4167V11.9167C20.1655 11.0259 19.9048 10.1547 19.4164 9.40978C18.928 8.66481 18.2331 8.07831 17.4167 7.722ZM6.41668 6.41667C6.41668 5.20109 6.89956 4.0353 7.7591 3.17576C8.61865 2.31622 9.78443 1.83333 11 1.83333C12.2156 1.83333 13.3814 2.31622 14.2409 3.17576C15.1005 4.0353 15.5833 5.20109 15.5833 6.41667V7.33333H6.41668V6.41667ZM18.3333 17.4167C18.3333 18.146 18.0436 18.8455 17.5279 19.3612C17.0122 19.8769 16.3127 20.1667 15.5833 20.1667H6.41668C5.68733 20.1667 4.98786 19.8769 4.47213 19.3612C3.95641 18.8455 3.66668 18.146 3.66668 17.4167V11.9167C3.66668 11.1873 3.95641 10.4878 4.47213 9.97212C4.98786 9.4564 5.68733 9.16667 6.41668 9.16667H15.5833C16.3127 9.16667 17.0122 9.4564 17.5279 9.97212C18.0436 10.4878 18.3333 11.1873 18.3333 11.9167V17.4167Z" fill="#444444"/>
<path d="M11 12.8333C10.7569 12.8333 10.5237 12.9298 10.3518 13.1017C10.1799 13.2736 10.0833 13.5068 10.0833 13.7499V15.5833C10.0833 15.8264 10.1799 16.0595 10.3518 16.2314C10.5237 16.4033 10.7569 16.4999 11 16.4999C11.2431 16.4999 11.4763 16.4033 11.6482 16.2314C11.8201 16.0595 11.9167 15.8264 11.9167 15.5833V13.7499C11.9167 13.5068 11.8201 13.2736 11.6482 13.1017C11.4763 12.9298 11.2431 12.8333 11 12.8333Z" fill="#444444"/>
</g>
<defs>
<clipPath id="clip0_13_244">
<rect width="22" height="22" fill="white"/>
</clipPath>
</defs>
</svg>
