<svg width="17" height="17" viewBox="0 0 17 17" fill="none" xmlns="http://www.w3.org/2000/svg">
<path d="M14.1665 4.95837H2.83317C2.05077 4.95837 1.4165 5.59264 1.4165 6.37504V13.4584C1.4165 14.2408 2.05077 14.875 2.83317 14.875H14.1665C14.9489 14.875 15.5832 14.2408 15.5832 13.4584V6.37504C15.5832 5.59264 14.9489 4.95837 14.1665 4.95837Z" stroke="#014B6E" stroke-width="1.41667" stroke-linecap="round" stroke-linejoin="round"/>
<path d="M11.3332 14.875V3.54167C11.3332 3.16594 11.1839 2.80561 10.9182 2.53993C10.6526 2.27426 10.2922 2.125 9.9165 2.125H7.08317C6.70745 2.125 6.34711 2.27426 6.08144 2.53993C5.81576 2.80561 5.6665 3.16594 5.6665 3.54167V14.875" stroke="#014B6E" stroke-width="1.41667" stroke-linecap="round" stroke-linejoin="round"/>
</svg>
