<svg width="29" height="29" viewBox="0 0 29 29" fill="none" xmlns="http://www.w3.org/2000/svg">
<path d="M8.05594 8.05542H20.9448C21.8309 8.05542 22.5559 8.78042 22.5559 9.66653V19.3332C22.5559 20.2193 21.8309 20.9443 20.9448 20.9443H8.05594C7.16982 20.9443 6.44482 20.2193 6.44482 19.3332V9.66653C6.44482 8.78042 7.16982 8.05542 8.05594 8.05542Z" stroke="#E94F37" stroke-width="1.61111" stroke-linecap="round" stroke-linejoin="round"/>
<path d="M8.05594 8.05542H20.9448C21.8309 8.05542 22.5559 8.78042 22.5559 9.66653V19.3332C22.5559 20.2193 21.8309 20.9443 20.9448 20.9443H8.05594C7.16982 20.9443 6.44482 20.2193 6.44482 19.3332V9.66653C6.44482 8.78042 7.16982 8.05542 8.05594 8.05542Z" stroke="black" stroke-opacity="0.2" stroke-width="1.61111" stroke-linecap="round" stroke-linejoin="round"/>
<path d="M8.05594 8.05542H20.9448C21.8309 8.05542 22.5559 8.78042 22.5559 9.66653V19.3332C22.5559 20.2193 21.8309 20.9443 20.9448 20.9443H8.05594C7.16982 20.9443 6.44482 20.2193 6.44482 19.3332V9.66653C6.44482 8.78042 7.16982 8.05542 8.05594 8.05542Z" stroke="black" stroke-opacity="0.2" stroke-width="1.61111" stroke-linecap="round" stroke-linejoin="round"/>
<path d="M22.5559 9.6665L14.5004 15.3054L6.44482 9.6665" stroke="#E94F37" stroke-width="1.61111" stroke-linecap="round" stroke-linejoin="round"/>
<path d="M22.5559 9.6665L14.5004 15.3054L6.44482 9.6665" stroke="black" stroke-opacity="0.2" stroke-width="1.61111" stroke-linecap="round" stroke-linejoin="round"/>
<path d="M22.5559 9.6665L14.5004 15.3054L6.44482 9.6665" stroke="black" stroke-opacity="0.2" stroke-width="1.61111" stroke-linecap="round" stroke-linejoin="round"/>
</svg>
