<svg width="29" height="29" viewBox="0 0 29 29" fill="none" xmlns="http://www.w3.org/2000/svg">
<g clip-path="url(#clip0_552_3144)">
<path d="M18.0244 20.8438V19.4341C18.0244 18.6863 17.7273 17.9692 17.1986 17.4404C16.6698 16.9117 15.9527 16.6146 15.2049 16.6146H9.56603C8.81826 16.6146 8.10113 16.9117 7.57238 17.4404C7.04363 17.9692 6.74658 18.6863 6.74658 19.4341V20.8438" stroke="#E94F37" stroke-width="1.61111" stroke-linecap="round" stroke-linejoin="round"/>
<path d="M18.0244 20.8438V19.4341C18.0244 18.6863 17.7273 17.9692 17.1986 17.4404C16.6698 16.9117 15.9527 16.6146 15.2049 16.6146H9.56603C8.81826 16.6146 8.10113 16.9117 7.57238 17.4404C7.04363 17.9692 6.74658 18.6863 6.74658 19.4341V20.8438" stroke="black" stroke-opacity="0.2" stroke-width="1.61111" stroke-linecap="round" stroke-linejoin="round"/>
<path d="M18.0244 20.8438V19.4341C18.0244 18.6863 17.7273 17.9692 17.1986 17.4404C16.6698 16.9117 15.9527 16.6146 15.2049 16.6146H9.56603C8.81826 16.6146 8.10113 16.9117 7.57238 17.4404C7.04363 17.9692 6.74658 18.6863 6.74658 19.4341V20.8438" stroke="black" stroke-opacity="0.2" stroke-width="1.61111" stroke-linecap="round" stroke-linejoin="round"/>
<path d="M12.3854 13.7951C13.9425 13.7951 15.2048 12.5328 15.2048 10.9757C15.2048 9.41856 13.9425 8.15625 12.3854 8.15625C10.8282 8.15625 9.56592 9.41856 9.56592 10.9757C9.56592 12.5328 10.8282 13.7951 12.3854 13.7951Z" stroke="#E94F37" stroke-width="1.61111" stroke-linecap="round" stroke-linejoin="round"/>
<path d="M12.3854 13.7951C13.9425 13.7951 15.2048 12.5328 15.2048 10.9757C15.2048 9.41856 13.9425 8.15625 12.3854 8.15625C10.8282 8.15625 9.56592 9.41856 9.56592 10.9757C9.56592 12.5328 10.8282 13.7951 12.3854 13.7951Z" stroke="black" stroke-opacity="0.2" stroke-width="1.61111" stroke-linecap="round" stroke-linejoin="round"/>
<path d="M12.3854 13.7951C13.9425 13.7951 15.2048 12.5328 15.2048 10.9757C15.2048 9.41856 13.9425 8.15625 12.3854 8.15625C10.8282 8.15625 9.56592 9.41856 9.56592 10.9757C9.56592 12.5328 10.8282 13.7951 12.3854 13.7951Z" stroke="black" stroke-opacity="0.2" stroke-width="1.61111" stroke-linecap="round" stroke-linejoin="round"/>
<path d="M22.2533 20.8437V19.434C22.2528 18.8093 22.0449 18.2024 21.6621 17.7087C21.2794 17.215 20.7435 16.8624 20.1387 16.7062" stroke="#E94F37" stroke-width="1.61111" stroke-linecap="round" stroke-linejoin="round"/>
<path d="M22.2533 20.8437V19.434C22.2528 18.8093 22.0449 18.2024 21.6621 17.7087C21.2794 17.215 20.7435 16.8624 20.1387 16.7062" stroke="black" stroke-opacity="0.2" stroke-width="1.61111" stroke-linecap="round" stroke-linejoin="round"/>
<path d="M22.2533 20.8437V19.434C22.2528 18.8093 22.0449 18.2024 21.6621 17.7087C21.2794 17.215 20.7435 16.8624 20.1387 16.7062" stroke="black" stroke-opacity="0.2" stroke-width="1.61111" stroke-linecap="round" stroke-linejoin="round"/>
<path d="M17.3198 8.2478C17.9263 8.40308 18.4638 8.7558 18.8477 9.25033C19.2316 9.74487 19.4399 10.3531 19.4399 10.9791C19.4399 11.6052 19.2316 12.2134 18.8477 12.7079C18.4638 13.2025 17.9263 13.5552 17.3198 13.7105" stroke="#E94F37" stroke-width="1.61111" stroke-linecap="round" stroke-linejoin="round"/>
<path d="M17.3198 8.2478C17.9263 8.40308 18.4638 8.7558 18.8477 9.25033C19.2316 9.74487 19.4399 10.3531 19.4399 10.9791C19.4399 11.6052 19.2316 12.2134 18.8477 12.7079C18.4638 13.2025 17.9263 13.5552 17.3198 13.7105" stroke="black" stroke-opacity="0.2" stroke-width="1.61111" stroke-linecap="round" stroke-linejoin="round"/>
<path d="M17.3198 8.2478C17.9263 8.40308 18.4638 8.7558 18.8477 9.25033C19.2316 9.74487 19.4399 10.3531 19.4399 10.9791C19.4399 11.6052 19.2316 12.2134 18.8477 12.7079C18.4638 13.2025 17.9263 13.5552 17.3198 13.7105" stroke="black" stroke-opacity="0.2" stroke-width="1.61111" stroke-linecap="round" stroke-linejoin="round"/>
</g>
<defs>
<clipPath id="clip0_552_3144">
<rect width="16.9167" height="16.9167" fill="white" transform="translate(6.0415 6.04163)"/>
</clipPath>
</defs>
</svg>
