<svg width="28" height="28" viewBox="0 0 28 28" fill="none" xmlns="http://www.w3.org/2000/svg">
<g clip-path="url(#clip0_442_1459)">
<path d="M16.0761 9.23614C16.7408 9.36583 17.3517 9.69092 17.8306 10.1698C18.3095 10.6487 18.6346 11.2596 18.7643 11.9243M16.0761 6.51392C17.4571 6.66734 18.745 7.28579 19.7281 8.26771C20.7113 9.24964 21.3314 10.5367 21.4865 11.9175M20.806 17.3484V19.39C20.8067 19.5796 20.7679 19.7672 20.692 19.9408C20.616 20.1145 20.5047 20.2704 20.365 20.3985C20.2254 20.5267 20.0605 20.6242 19.8809 20.6849C19.7014 20.7456 19.5111 20.7682 19.3224 20.7511C17.2282 20.5236 15.2166 19.808 13.4492 18.6618C11.8048 17.617 10.4107 16.2228 9.36583 14.5785C8.21567 12.8031 7.49991 10.7817 7.27652 8.67808C7.25951 8.48989 7.28188 8.30021 7.34219 8.12113C7.40251 7.94205 7.49945 7.7775 7.62685 7.63794C7.75424 7.49838 7.9093 7.38687 8.08216 7.31052C8.25501 7.23417 8.44186 7.19465 8.63083 7.19447H10.6725C11.0028 7.19122 11.323 7.30818 11.5734 7.52354C11.8238 7.73891 11.9874 8.03798 12.0336 8.36503C12.1198 9.01841 12.2796 9.65994 12.51 10.2774C12.6016 10.521 12.6214 10.7857 12.5671 11.0402C12.5128 11.2947 12.3867 11.5283 12.2037 11.7134L11.3394 12.5777C12.3082 14.2815 13.719 15.6922 15.4228 16.661L16.2871 15.7967C16.4721 15.6137 16.7057 15.4876 16.9602 15.4333C17.2147 15.3791 17.4795 15.3989 17.723 15.4904C18.3405 15.7208 18.982 15.8807 19.6354 15.9668C19.966 16.0135 20.2679 16.18 20.4837 16.4347C20.6996 16.6894 20.8142 17.0146 20.806 17.3484Z" stroke="#E94F37" stroke-width="1.36111" stroke-linecap="round" stroke-linejoin="round"/>
<path d="M16.0761 9.23614C16.7408 9.36583 17.3517 9.69092 17.8306 10.1698C18.3095 10.6487 18.6346 11.2596 18.7643 11.9243M16.0761 6.51392C17.4571 6.66734 18.745 7.28579 19.7281 8.26771C20.7113 9.24964 21.3314 10.5367 21.4865 11.9175M20.806 17.3484V19.39C20.8067 19.5796 20.7679 19.7672 20.692 19.9408C20.616 20.1145 20.5047 20.2704 20.365 20.3985C20.2254 20.5267 20.0605 20.6242 19.8809 20.6849C19.7014 20.7456 19.5111 20.7682 19.3224 20.7511C17.2282 20.5236 15.2166 19.808 13.4492 18.6618C11.8048 17.617 10.4107 16.2228 9.36583 14.5785C8.21567 12.8031 7.49991 10.7817 7.27652 8.67808C7.25951 8.48989 7.28188 8.30021 7.34219 8.12113C7.40251 7.94205 7.49945 7.7775 7.62685 7.63794C7.75424 7.49838 7.9093 7.38687 8.08216 7.31052C8.25501 7.23417 8.44186 7.19465 8.63083 7.19447H10.6725C11.0028 7.19122 11.323 7.30818 11.5734 7.52354C11.8238 7.73891 11.9874 8.03798 12.0336 8.36503C12.1198 9.01841 12.2796 9.65994 12.51 10.2774C12.6016 10.521 12.6214 10.7857 12.5671 11.0402C12.5128 11.2947 12.3867 11.5283 12.2037 11.7134L11.3394 12.5777C12.3082 14.2815 13.719 15.6922 15.4228 16.661L16.2871 15.7967C16.4721 15.6137 16.7057 15.4876 16.9602 15.4333C17.2147 15.3791 17.4795 15.3989 17.723 15.4904C18.3405 15.7208 18.982 15.8807 19.6354 15.9668C19.966 16.0135 20.2679 16.18 20.4837 16.4347C20.6996 16.6894 20.8142 17.0146 20.806 17.3484Z" stroke="black" stroke-opacity="0.2" stroke-width="1.36111" stroke-linecap="round" stroke-linejoin="round"/>
<path d="M16.0761 9.23614C16.7408 9.36583 17.3517 9.69092 17.8306 10.1698C18.3095 10.6487 18.6346 11.2596 18.7643 11.9243M16.0761 6.51392C17.4571 6.66734 18.745 7.28579 19.7281 8.26771C20.7113 9.24964 21.3314 10.5367 21.4865 11.9175M20.806 17.3484V19.39C20.8067 19.5796 20.7679 19.7672 20.692 19.9408C20.616 20.1145 20.5047 20.2704 20.365 20.3985C20.2254 20.5267 20.0605 20.6242 19.8809 20.6849C19.7014 20.7456 19.5111 20.7682 19.3224 20.7511C17.2282 20.5236 15.2166 19.808 13.4492 18.6618C11.8048 17.617 10.4107 16.2228 9.36583 14.5785C8.21567 12.8031 7.49991 10.7817 7.27652 8.67808C7.25951 8.48989 7.28188 8.30021 7.34219 8.12113C7.40251 7.94205 7.49945 7.7775 7.62685 7.63794C7.75424 7.49838 7.9093 7.38687 8.08216 7.31052C8.25501 7.23417 8.44186 7.19465 8.63083 7.19447H10.6725C11.0028 7.19122 11.323 7.30818 11.5734 7.52354C11.8238 7.73891 11.9874 8.03798 12.0336 8.36503C12.1198 9.01841 12.2796 9.65994 12.51 10.2774C12.6016 10.521 12.6214 10.7857 12.5671 11.0402C12.5128 11.2947 12.3867 11.5283 12.2037 11.7134L11.3394 12.5777C12.3082 14.2815 13.719 15.6922 15.4228 16.661L16.2871 15.7967C16.4721 15.6137 16.7057 15.4876 16.9602 15.4333C17.2147 15.3791 17.4795 15.3989 17.723 15.4904C18.3405 15.7208 18.982 15.8807 19.6354 15.9668C19.966 16.0135 20.2679 16.18 20.4837 16.4347C20.6996 16.6894 20.8142 17.0146 20.806 17.3484Z" stroke="black" stroke-opacity="0.2" stroke-width="1.36111" stroke-linecap="round" stroke-linejoin="round"/>
</g>
<defs>
<clipPath id="clip0_442_1459">
<rect width="16.3333" height="16.3333" fill="white" transform="translate(5.8335 5.83325)"/>
</clipPath>
</defs>
</svg>
