<svg width="76" height="76" viewBox="0 0 76 76" fill="none" xmlns="http://www.w3.org/2000/svg">
<path d="M35.8889 52.7778C45.2164 52.7778 52.7778 45.2164 52.7778 35.8889C52.7778 26.5614 45.2164 19 35.8889 19C26.5614 19 19 26.5614 19 35.8889C19 45.2164 26.5614 52.7778 35.8889 52.7778Z" stroke="#E94F37" stroke-width="4.22222" stroke-linecap="round" stroke-linejoin="round"/>
<path d="M35.8889 52.7778C45.2164 52.7778 52.7778 45.2164 52.7778 35.8889C52.7778 26.5614 45.2164 19 35.8889 19C26.5614 19 19 26.5614 19 35.8889C19 45.2164 26.5614 52.7778 35.8889 52.7778Z" stroke="black" stroke-opacity="0.2" stroke-width="4.22222" stroke-linecap="round" stroke-linejoin="round"/>
<path d="M35.8889 52.7778C45.2164 52.7778 52.7778 45.2164 52.7778 35.8889C52.7778 26.5614 45.2164 19 35.8889 19C26.5614 19 19 26.5614 19 35.8889C19 45.2164 26.5614 52.7778 35.8889 52.7778Z" stroke="black" stroke-opacity="0.2" stroke-width="4.22222" stroke-linecap="round" stroke-linejoin="round"/>
<path d="M56.9997 57.0001L47.8164 47.8168" stroke="#E94F37" stroke-width="4.22222" stroke-linecap="round" stroke-linejoin="round"/>
<path d="M56.9997 57.0001L47.8164 47.8168" stroke="black" stroke-opacity="0.2" stroke-width="4.22222" stroke-linecap="round" stroke-linejoin="round"/>
<path d="M56.9997 57.0001L47.8164 47.8168" stroke="black" stroke-opacity="0.2" stroke-width="4.22222" stroke-linecap="round" stroke-linejoin="round"/>
</svg>
