<svg width="29" height="29" viewBox="0 0 29 29" fill="none" xmlns="http://www.w3.org/2000/svg">
<path d="M20.9446 21.7498V20.1387C20.9446 19.2841 20.6051 18.4646 20.0008 17.8603C19.3965 17.256 18.5769 16.9165 17.7223 16.9165H11.2779C10.4233 16.9165 9.60371 17.256 8.99943 17.8603C8.39515 18.4646 8.05566 19.2841 8.05566 20.1387V21.7498" stroke="#E94F37" stroke-width="1.61111" stroke-linecap="round" stroke-linejoin="round"/>
<path d="M20.9446 21.7498V20.1387C20.9446 19.2841 20.6051 18.4646 20.0008 17.8603C19.3965 17.256 18.5769 16.9165 17.7223 16.9165H11.2779C10.4233 16.9165 9.60371 17.256 8.99943 17.8603C8.39515 18.4646 8.05566 19.2841 8.05566 20.1387V21.7498" stroke="black" stroke-opacity="0.2" stroke-width="1.61111" stroke-linecap="round" stroke-linejoin="round"/>
<path d="M20.9446 21.7498V20.1387C20.9446 19.2841 20.6051 18.4646 20.0008 17.8603C19.3965 17.256 18.5769 16.9165 17.7223 16.9165H11.2779C10.4233 16.9165 9.60371 17.256 8.99943 17.8603C8.39515 18.4646 8.05566 19.2841 8.05566 20.1387V21.7498" stroke="black" stroke-opacity="0.2" stroke-width="1.61111" stroke-linecap="round" stroke-linejoin="round"/>
<path d="M14.5001 13.6942C16.2796 13.6942 17.7223 12.2516 17.7223 10.472C17.7223 8.69239 16.2796 7.24976 14.5001 7.24976C12.7205 7.24976 11.2778 8.69239 11.2778 10.472C11.2778 12.2516 12.7205 13.6942 14.5001 13.6942Z" stroke="#E94F37" stroke-width="1.61111" stroke-linecap="round" stroke-linejoin="round"/>
<path d="M14.5001 13.6942C16.2796 13.6942 17.7223 12.2516 17.7223 10.472C17.7223 8.69239 16.2796 7.24976 14.5001 7.24976C12.7205 7.24976 11.2778 8.69239 11.2778 10.472C11.2778 12.2516 12.7205 13.6942 14.5001 13.6942Z" stroke="black" stroke-opacity="0.2" stroke-width="1.61111" stroke-linecap="round" stroke-linejoin="round"/>
<path d="M14.5001 13.6942C16.2796 13.6942 17.7223 12.2516 17.7223 10.472C17.7223 8.69239 16.2796 7.24976 14.5001 7.24976C12.7205 7.24976 11.2778 8.69239 11.2778 10.472C11.2778 12.2516 12.7205 13.6942 14.5001 13.6942Z" stroke="black" stroke-opacity="0.2" stroke-width="1.61111" stroke-linecap="round" stroke-linejoin="round"/>
</svg>
