<svg width="31" height="31" viewBox="0 0 31 31" fill="none" xmlns="http://www.w3.org/2000/svg">
<path d="M13.9469 8.53757L6.68819 20.1047C6.53853 20.3521 6.45934 20.6326 6.4585 20.9182C6.45766 21.2039 6.53521 21.4848 6.68341 21.733C6.83162 21.9812 7.04532 22.188 7.30326 22.3329C7.5612 22.4778 7.85439 22.5557 8.15365 22.5588H22.6712C22.9704 22.5557 23.2636 22.4778 23.5216 22.3329C23.7795 22.188 23.9932 21.9812 24.1414 21.733C24.2896 21.4848 24.3672 21.2039 24.3663 20.9182C24.3655 20.6326 24.2863 20.3521 24.1366 20.1047L16.8779 8.53757C16.7251 8.29715 16.51 8.09837 16.2533 7.96042C15.9966 7.82247 15.707 7.75 15.4124 7.75C15.1178 7.75 14.8282 7.82247 14.5715 7.96042C14.3148 8.09837 14.0997 8.29715 13.9469 8.53757V8.53757Z" stroke="#E94F37" stroke-width="1.86981" stroke-linecap="round" stroke-linejoin="round"/>
<path d="M13.9469 8.53757L6.68819 20.1047C6.53853 20.3521 6.45934 20.6326 6.4585 20.9182C6.45766 21.2039 6.53521 21.4848 6.68341 21.733C6.83162 21.9812 7.04532 22.188 7.30326 22.3329C7.5612 22.4778 7.85439 22.5557 8.15365 22.5588H22.6712C22.9704 22.5557 23.2636 22.4778 23.5216 22.3329C23.7795 22.188 23.9932 21.9812 24.1414 21.733C24.2896 21.4848 24.3672 21.2039 24.3663 20.9182C24.3655 20.6326 24.2863 20.3521 24.1366 20.1047L16.8779 8.53757C16.7251 8.29715 16.51 8.09837 16.2533 7.96042C15.9966 7.82247 15.707 7.75 15.4124 7.75C15.1178 7.75 14.8282 7.82247 14.5715 7.96042C14.3148 8.09837 14.0997 8.29715 13.9469 8.53757V8.53757Z" stroke="black" stroke-opacity="0.2" stroke-width="1.86981" stroke-linecap="round" stroke-linejoin="round"/>
<path d="M13.9469 8.53757L6.68819 20.1047C6.53853 20.3521 6.45934 20.6326 6.4585 20.9182C6.45766 21.2039 6.53521 21.4848 6.68341 21.733C6.83162 21.9812 7.04532 22.188 7.30326 22.3329C7.5612 22.4778 7.85439 22.5557 8.15365 22.5588H22.6712C22.9704 22.5557 23.2636 22.4778 23.5216 22.3329C23.7795 22.188 23.9932 21.9812 24.1414 21.733C24.2896 21.4848 24.3672 21.2039 24.3663 20.9182C24.3655 20.6326 24.2863 20.3521 24.1366 20.1047L16.8779 8.53757C16.7251 8.29715 16.51 8.09837 16.2533 7.96042C15.9966 7.82247 15.707 7.75 15.4124 7.75C15.1178 7.75 14.8282 7.82247 14.5715 7.96042C14.3148 8.09837 14.0997 8.29715 13.9469 8.53757V8.53757Z" stroke="black" stroke-opacity="0.2" stroke-width="1.86981" stroke-linecap="round" stroke-linejoin="round"/>
<path d="M15.4121 12.7423V16.0145" stroke="#E94F37" stroke-width="1.86981" stroke-linecap="round" stroke-linejoin="round"/>
<path d="M15.4121 12.7423V16.0145" stroke="black" stroke-opacity="0.2" stroke-width="1.86981" stroke-linecap="round" stroke-linejoin="round"/>
<path d="M15.4121 12.7423V16.0145" stroke="black" stroke-opacity="0.2" stroke-width="1.86981" stroke-linecap="round" stroke-linejoin="round"/>
<path d="M15.4121 19.2865H15.4203" stroke="#E94F37" stroke-width="1.86981" stroke-linecap="round" stroke-linejoin="round"/>
<path d="M15.4121 19.2865H15.4203" stroke="black" stroke-opacity="0.2" stroke-width="1.86981" stroke-linecap="round" stroke-linejoin="round"/>
<path d="M15.4121 19.2865H15.4203" stroke="black" stroke-opacity="0.2" stroke-width="1.86981" stroke-linecap="round" stroke-linejoin="round"/>
</svg>
