<svg width="47" height="47" viewBox="0 0 47 47" fill="none" xmlns="http://www.w3.org/2000/svg">
<g clip-path="url(#clip0_5280_4271)">
<path d="M37.9427 13.4635C36.7706 14.2902 35.4729 14.9226 34.0995 15.3361C33.3623 14.4886 32.3827 13.8878 31.293 13.6152C30.2033 13.3425 29.0562 13.4111 28.0067 13.8116C26.9573 14.2122 26.0562 14.9254 25.4253 15.8547C24.7944 16.7841 24.4641 17.8848 24.4792 19.008V20.232C22.3282 20.2877 20.1969 19.8107 18.2749 18.8433C16.353 17.8759 14.7001 16.4483 13.4635 14.6874C13.4635 14.6874 8.56771 25.7031 19.5833 30.5989C17.0626 32.3099 14.0598 33.1679 11.0156 33.0468C22.0312 39.1666 35.4948 33.0468 35.4948 18.9713C35.4937 18.6304 35.4609 18.2903 35.3969 17.9554C36.646 16.7235 37.5276 15.1681 37.9427 13.4635V13.4635Z" stroke="#F7F7F7" stroke-width="2.44792" stroke-linecap="round" stroke-linejoin="round"/>
</g>
<defs>
<clipPath id="clip0_5280_4271">
<rect width="29.375" height="29.375" fill="white" transform="translate(9.79166 9.79175)"/>
</clipPath>
</defs>
</svg>
