<svg width="47" height="47" viewBox="0 0 47 47" fill="none" xmlns="http://www.w3.org/2000/svg">
<g clip-path="url(#clip0_5280_4274)">
<path d="M37.261 16.2149C37.1059 15.5953 36.79 15.0276 36.3453 14.5691C35.9006 14.1106 35.3428 13.7776 34.7282 13.6038C32.4826 13.0554 23.5004 13.0554 23.5004 13.0554C23.5004 13.0554 14.5182 13.0554 12.2726 13.656C11.658 13.8299 11.1002 14.1628 10.6555 14.6213C10.2108 15.0798 9.89494 15.6475 9.73985 16.2671C9.32888 18.546 9.12785 20.8578 9.1393 23.1735C9.12465 25.5066 9.32569 27.836 9.73985 30.1321C9.91083 30.7324 10.2338 31.2786 10.6774 31.7177C11.1211 32.1568 11.6705 32.474 12.2726 32.6388C14.5182 33.2393 23.5004 33.2393 23.5004 33.2393C23.5004 33.2393 32.4826 33.2393 34.7282 32.6388C35.3428 32.4649 35.9006 32.1319 36.3453 31.6734C36.79 31.215 37.1059 30.6472 37.261 30.0276C37.6688 27.7659 37.8698 25.4717 37.8615 23.1735C37.8762 20.8404 37.6751 18.5109 37.261 16.2149V16.2149Z" stroke="#F7F7F7" stroke-width="2.61111" stroke-linecap="round" stroke-linejoin="round"/>
<path d="M20.5625 27.4429L28.0694 23.1737L20.5625 18.9045V27.4429Z" stroke="#F7F7F7" stroke-width="2.61111" stroke-linecap="round" stroke-linejoin="round"/>
</g>
<defs>
<clipPath id="clip0_5280_4274">
<rect width="31.3333" height="31.3333" fill="white" transform="translate(7.83334 7.83325)"/>
</clipPath>
</defs>
</svg>
